/* XPM */
static char *result[] = {
/* columns rows colors chars-per-pixel */
"64 64 222 2 ",
"   c #1F4500",
".  c #1F4600",
"X  c #204600",
"o  c #214700",
"O  c #214800",
"+  c #224800",
"@  c #234800",
"#  c #224900",
"$  c #234900",
"%  c #224801",
"&  c #234901",
"*  c #224802",
"=  c #234902",
"-  c #244901",
";  c #244A00",
":  c #244A01",
">  c #254A01",
",  c #254B01",
"<  c #264B01",
"1  c #244A02",
"2  c #254B03",
"3  c #264C02",
"4  c #274D03",
"5  c #264B04",
"6  c #274C05",
"7  c #274D07",
"8  c #284D02",
"9  c #2A4D02",
"0  c #284E02",
"q  c #284E03",
"w  c #294F03",
"e  c #2B4E03",
"r  c #284D06",
"t  c #284E07",
"y  c #294E08",
"u  c #294F09",
"i  c #2A500A",
"p  c #2D520F",
"a  c #2F5411",
"s  c #325410",
"d  c #3B6108",
"f  c #3E6508",
"g  c #3E6409",
"h  c #3E640D",
"j  c #406609",
"k  c #406709",
"l  c #416709",
"z  c #41670A",
"x  c #43690A",
"c  c #43690F",
"v  c #496F0E",
"b  c #456A10",
"n  c #466B10",
"m  c #486E11",
"M  c #4A6F12",
"N  c #4E6D15",
"B  c #4A7012",
"V  c #4B7012",
"C  c #4A7112",
"Z  c #4C7113",
"A  c #4D7314",
"S  c #507314",
"D  c #53791B",
"F  c #547A1C",
"G  c #557B1C",
"H  c #567B1C",
"J  c #567C1D",
"K  c #577C1D",
"L  c #567C1E",
"P  c #5B7C1E",
"I  c #5C7D1E",
"U  c #687A1E",
"Y  c #A91F24",
"T  c #A5552B",
"R  c #5A8111",
"E  c #5B8111",
"W  c #5B8211",
"Q  c #5C8211",
"!  c #5F8511",
"~  c #5D8412",
"^  c #5F8512",
"/  c #799F1B",
"(  c #7BA11B",
")  c #7BA21A",
"_  c #7BA21B",
"`  c #7CA21B",
"'  c #7DA31B",
"]  c #7EA41B",
"[  c #7FA41B",
"{  c #618120",
"}  c #6C9124",
"|  c #6F9428",
" . c #729624",
".. c #769C20",
"X. c #739824",
"o. c #739825",
"O. c #749925",
"+. c #759A25",
"@. c #759A26",
"#. c #769B27",
"$. c #779C27",
"%. c #80A61E",
"&. c #81A71E",
"*. c #82A81F",
"=. c #9F8A31",
"-. c #9F8B31",
";. c #9E9D34",
":. c #9F9D34",
">. c #A08B31",
",. c #80A720",
"<. c #83A920",
"1. c #82A821",
"2. c #83A921",
"3. c #84A920",
"4. c #84A921",
"5. c #84AA20",
"6. c #84AA21",
"7. c #86AB22",
"8. c #87AD24",
"9. c #88AD24",
"0. c #89AE25",
"q. c #8DB22A",
"w. c #8EB32A",
"e. c #8FB42B",
"r. c #92B72E",
"t. c #93B72E",
"y. c #92B82F",
"u. c #9DAF36",
"i. c #95BA31",
"p. c #95BB32",
"a. c #96BB32",
"s. c #97BB32",
"d. c #97BC33",
"f. c #98BD34",
"g. c #99BE35",
"h. c #99BE36",
"j. c #99BF37",
"k. c #9ABF37",
"l. c #99C037",
"z. c #9BC037",
"x. c #9CC137",
"c. c #9AC038",
"v. c #9BC038",
"b. c #9BC138",
"n. c #9DC038",
"m. c #9CC138",
"M. c #9DC138",
"N. c #9EC138",
"B. c #9DC238",
"V. c #9EC238",
"C. c #9EC33A",
"Z. c #9FC43B",
"A. c #A0C43B",
"S. c #A1C43B",
"D. c #A0C53C",
"F. c #A1C53C",
"G. c #A1C63C",
"H. c #A1C63D",
"J. c #A2C73D",
"K. c #A2C73E",
"L. c #A3C73E",
"P. c #A3C83F",
"I. c #A4C83F",
"U. c #A4C93F",
"Y. c #A4C940",
"T. c #A6CB41",
"R. c #A6CB42",
"E. c #A7CC42",
"W. c #A8CD43",
"Q. c #A9CD43",
"!. c #A8CD44",
"~. c #AACE44",
"^. c #ABCF45",
"/. c #AACF46",
"(. c #ABD046",
"). c #ABD047",
"_. c #ACD147",
"`. c #ADD147",
"'. c #ADD248",
"]. c #ADD249",
"[. c #AED248",
"{. c #AED349",
"}. c #AFD349",
"|. c #AED34A",
" X c #AFD34A",
".X c #AFD44A",
"XX c #ACD24E",
"oX c #ADD34E",
"OX c #ADD34F",
"+X c #B0D54B",
"@X c #B1D54B",
"#X c #B1D64C",
"$X c #B1D64D",
"%X c #B2D64C",
"&X c #B2D74D",
"*X c #B3D84D",
"=X c #B4D94F",
"-X c #B4D950",
";X c #B5D950",
":X c #B5DA50",
">X c #B6DA51",
",X c #B6DB51",
"<X c #B5DA52",
"1X c #B5DB52",
"2X c #B8DD53",
"3X c #B8DD54",
"4X c #B9DE54",
"5X c #B9DE55",
"6X c #BADE54",
"7X c #BADF55",
"8X c #BBDF55",
"9X c #BADF56",
"0X c #BAE056",
"qX c #BBE056",
"wX c #BBE156",
"eX c #BBE157",
"rX c #BCE056",
"tX c #BCE156",
"yX c #BDE156",
"uX c #BCE157",
"iX c #BDE157",
"pX c None",
/* pixels */
"pXpXpXpXpXpXpXpXpXpXpXpXpXpXpXpXpXpXpXpXpXpXpXpXpXpXpXpXpXpXpXpXpXpXpXpXpXpXpXpXpXpXpXpXpXpXpXpXpXpXpXpXpXpXpXpXpXpXpXpXpXpXpXpX",
"pXpXpXpXpXpXpXpXpXpXpXpXpXpXpXpXpXpXpXpXpXpXpXpXpXpXpXpXpXpXpXpXpXpXpXpXpXpXpXpXpXpXpXpXpXpXpXpXpXpXpXpXpXpXpXpXpXpXpXpXpXpXpXpX",
"pXpXpXpXpXpXpXpXpXpXpXpXpXpXpXpXpXpXpXpXpXpXpXpXpXpXpXpXpXpXpXpXpXpXpXpXpXpXpXpXpXpXpXpXpXpXpXpXpXpXpXpXpXpXpXpXpXpXpXpXpXpXpXpX",
"pXpXpXpXpXpXpXpXpXpXpXpXpXpXpXpXpXpXpXpXpXpXpXpXpXpXpXpXpXpXpXpXpXpXpXpXpXpXpXpXpXpXpXpXpXpXpXpXpXpXpXpXpXpXpXpXpXpXpXpXpXpXpXpX",
"pXpXpXpXpXpXpXpXpXpXpXpXpXpXpXpXpXpXpXpXpXpXpXpXpXpXpXpXpXpXpXpXpXpXpXpXpXpXpXpXpXpXpXpXpXpXpXpXpXpXpXpXpXpXpXpXpXpXpXpXpXpXpXpX",
"pXpXpXpXpXpXpXpXpXpXpXpXpXpXpXpXpXpXpXpXpXpXpXpXpXpXpXpXpXpXpXpXpXpXpXpXpXpXpXpXpXpXpXpXpXpXpXpXpXpXpXpXpXpXpXpXpXpXpXpXpXpXpXpX",
"pXpXpXpXpXpXpXpXpXpXpXpXpXpXpXpXpXpXpXpXpXpXpXpXpXpXpXpXpXpXpXpXpXpXpXpXpXpXpXpXpXpXpXpXpXpXpXpXpXpXpXpXpXpXpXpXpXpXpXpXpXpXpXpX",
"pXpXpXpXpXpXpXpXpXpXpXpXpXpXpXpXpXpXpXpXpXpXpXpXpXpXpXpXpXpXpXpXpXpXpXpXpXpXpXpXpXpXpXpXpXpXpXpXpXpXpXpXpXpXpXpXpXpXpXpXpXpXpXpX",
"pXpXpXpXpXpXpXpXpXpXpXpXpXpXpXpXpXpXpXpXpXpXpXpXpXpXpXpXpXpXpXpXpXpXpXpXpXpXpXpXpXpXpXpXpXpXpXpXpXpXpXpXpXpXpXpXpXpXpXpXpXpXpXpX",
"pXpXpXpXpXpXpXpXpXpXpXpXpXpXpXpXpXpXpXpXpXpXpXpXpXpXpXpXpXpXpXpXpXpXpXpXpXpXpXpXpXpXpXpXpXpXpXpXpXpXpXpXpXpXpXpXpXpXpXpXpXpXpXpX",
"pXpXpXpXpXpXpXpXpXpXpXpXpXpXpXpXpXpXpXpXpXpXpXpXpXpXpXpXpXpXpXpXpXpXpXpXpXpXpXpXpXpXpXpXpXpXpXpXpXpXpXpXpXpXpXpXpXpXpXpXpXpXpXpX",
"pXpXpXpXpXpXpXpXpXpXpXpXpXpXpXpXpXpXpXpXpXpXpXpXpXpXpXpXpXpXpXpXpXpXpXpXpXpXpXpXpXpXpXpXpXpXpXpXpXpXpXpXpXpXpXpXpXpXpXpXpXpXpXpX",
"pXpXpXpXpXpXpXpXpXpXpXpXpXpXpXpXpXpXpXpXpXpXpXpXpXpXpXpXpXpXpXpXpXpXpXpXpXpXpXpXpXpXpXpXpXpXpXpXpXpXpXpXpXpXpXpXpXpXpXpXpXpXpXpX",
"pXpXpXpXpXpXpXpXpXpXpXpXpXpXpXpXpXpXpXpXpXpXpXpXpXpXpXpXpXpXpXpXpXpXpXpXpXpXpXpXpXpXpXpXpXpXpXpXpXpXpXpXpXpXpXpXpXpXpXpXpXpXpXpX",
"pXpXpXpXpXpXpXpXpXpXpXpXpXpXpXpXpXpXpXpXpXpXpXpXpXpXpXpXpXpXpXpXpXpXpXpXpXpXpXpXpXpXpXpXpXpXpXpXpXpXpXpXpXpXpXpXpXpXpXpXpXpXpXpX",
"pXpXpXpXpXpXpXpXpXpXpXpXpXpXpXpXpXpXpXpXpXpXpXpXpXpXpXpXpXpXpXpXpXpXpXpXpXpXpXpXpXpXpXpXpXpXpXpXpXpXpXpXpXpXpXpXpXpXpXpXpXpXpXpX",
"pXpXpXpXpXpXpXpXpXpXpXpXpXpXpXpXpXpXpXpXpXpXpXpXpXpXpXpXpXpXpXpXpXpXpXpXpXpXpXpXpXpXpXpXpXpXpXpXpXpXpXpXpXpXpXpXpXpXpXpXpXpXpXpX",
"pXpXpXpXpXpXpXpXpXpXpXpXpXpXpXpXpXpXpXpXpXpXpXpXpXpXpXpXpXpXpXpXpXpXpXpXpXpXpXpXpXpXpXpXpXpXpXpXpXpXpXpXpXpXpXpXpXpXpXpXpXpXpXpX",
"pXpXpXpXpXpXpXpXpXpXpXpXpXpXpXpXpXpXpXpXpXpXpXpXpXpXpXpXpXpXpXpXpXpXpXpXpXpXpXpXpXpXpXpXpXpXpXpXpXpXpXpXpXpXpXpXpXpXpXpXpXpXpXpX",
"pXpXpXpXpXpXpXpXpXpXpXpXpXpXpXpXpXpXpXpXpXpXpXpXpXpXpXpXpXpXpXpXpXpXpXpXpXpXpXpXpXpXpXpXpXpXpXpXpXpXpXpXpXpXpXpXpXpXpXpXpXpXpXpX",
"pXpXpXpXpXpXpXpXpXpXpXpXpXpXpXpXpXpXpXpXpXpXpXpXpXpXpXpXpXpXpXpXpXpXpXpXpXpXpXpXpXpXpXpXpXpXpXpXpXpXpXpXpXpXpXpXpXpXpXpXpXpXpXpX",
"pXpXpXpXpXpXpXpXpXpXpXpXpXpXpXpXpXpXpXpXpXpXpXpXpXpXpXpXpXpXpXpXpXpXpXpXpXpXpXpXpXpXpXpXpXpXpXpXpXpXpXpXpXpXpXpXpXpXpXpXpXpXpXpX",
"pXpXpXpXpXpXpXpXpXpXpXpXpXpXpXpXpXpXpXpXpXpXpXpXpXpXpXpXpXpXpXpXpXpXpXpXpXpXpXpXpXpXpXpXpXpXpXpXpXpXpXpXpXpXpXpXpXpXpXpXpXpXpXpX",
"pXpXpXpXpXpXpXpXpXpXpXpXpXpXpXpXpXpXpXpXpXpXpXpXpXpXpXpXpXpXpXpXpXpXpXpXpXpXpXpXpXpXpXpXpXpXpXpXpXpXpXpXpXpXpXpXpXpXpXpXpXpXpXpX",
"pXpXpXpXpXpXpXpXpXpXpXpXpXpXpXpXpXpXpXpXpXpXpXpXpXpXpXpXpXpXpXpXpXpXpXpXpXpXpXpXpXpXpXpXpXpXpXpXpXpXpXpXpXpXpXpXpXpXpXpXpXpXpXpX",
"pXpXpXpXpXpXpXpXpXpXpXpXpXpXpXpXpXpXpXpXpXpXpXpXpXpXpXpXpXpXpXpXpXpXpXpXpXpXpXpXpXpXpXpXpXpXpXpXpXpXpXpXpXpXpXpXpXpXpXpXpXpXpXpX",
"pXpXpXpXpXpXpXpXpXpXpXpXpXpXpXpXpXpXpXpXpXpXpXpXpXpXpXpXpXpXpXpXpXpXpXpXpXpXpXpXpXpXpXpXpXpXpXpXpXpXpXpXpXpXpXpXpXpXpXpXpXpXpXpX",
"pXpXpXpXpXpXpXpXpXpXpXpXpXpXpXpXpXpXpXpXpXpXpXpXpXpXpXpXpXpXpXpXpXpXpXpXpXpXpXpXpXpXpXpXpXpXpXpXpXpXpXpXpXpXpXpXpXpXpXpXpXpXpXpX",
"pXpXpXpXpXpXpXpXpXpXpXpXpXpXpXpXpXpXpXpXpXpXpXpXpXpXpXpXpXpXpXpXpXpXpXpXpXpXpXpXpXpXpXpXpXpXpXpXpXpXpXpXpXpXpXpXpXpXpXpXpXpXpXpX",
"pXpXpXpXpXpXpXpXpXpXpXpXpXpXpXpXpXpXpXpXpXpXpXpXpXpXpXpX# $ $ $ $ $ $ $ $ $ $ $ 1 pXpXpXpXpXpXpXpXpXpXpXpXpXpXpXpXpXpXpXpXpXpXpX",
"pXpXpXpXpXpXpXpXpXpXpXpXpXpXpXpXpXpXpXpXpXpXpXpXpXpXpXpX+ + + + + + + $ $ $ $ $ = pXpXpXpXpXpXpXpXpXpXpXpXpXpXpXpXpXpXpXpXpXpXpX",
"pXpXpXpXpXpXpXpXpXpXpXpXpXpXpXpXpXpXpXpXpXpXpXpXpXpXpXpX@ + + + + + + $ 4 4 4 3 > pXpXpXpXpXpXpXpXpXpXpXpXpXpXpXpXpXpXpXpXpXpXpX",
"pXpXpXpXpXpXpXpXpXpXpXpXpXpXpXpXpXpXpXpXpXpXpXpX: $ $ P OXoXoXoXoXoXoXoXoXoXoXoXXX6 p a pXpXpXpXpXpXpXpXpXpXpXpXpXpXpXpXpXpXpXpX",
"pXpXpXpXpXpXpXpXpXpXpXpXpXpXpXpXpXpXpXpXpXpXpXpX$ + # L eXtXtXtXtXtXtXtXtXtXtXtX9X+ O & pXpXpXpXpXpXpXpXpXpXpXpXpXpXpXpXpXpXpXpX",
"pXpXpXpXpXpXpXpXpXpXpXpXpXpXpXpXpXpXpXpXpXpXpXpX$ + o J iXiXiXqXqXqXqXqXqXqXqXqX7X+ o $ pXpXpXpXpXpXpXpXpXpXpXpXpXpXpXpXpXpXpXpX",
"pXpXpXpXpXpXpXpXpXpXpXpXpXpXpXpXpXpXpXpXpXpXpXpXS B V U >.>.u.`._._._._._.%XqXqX0XK D D N pXpXpXpXpXpXpXpXpXpXpXpXpXpXpXpXpXpXpX",
"pXpXpXpXpXpXpXpXpXpXpXpXpXpXpXpXpXpXpXpXpX5 1 8 k.v.n.>.Y Y >.M.m.m.m.m.m.Q.qXqXqX5X4X3XI * 2 i pXpXpXpXpXpXpXpXpXpXpXpXpXpXpXpX",
"pXpXpXpXpXpXpXpXpXpXpXpXpXpXpXpXpXpXpXpXpX1 $ w v.m.B.=.Y Y >.m.m.m.M.M.M.Q.tXqXqXqXqX5XF o $ t pXpXpXpXpXpXpXpXpXpXpXpXpXpXpXpX",
"pXpXpXpXpXpXpXpXpXpXpXpXpXpXpXpXpXpXpXpXpX: , 3 v.m.m.u.>.>.u.m.m.m.M.M.M.F.;X-X-X4XqX5XF $ $ t pXpXpXpXpXpXpXpXpXpXpXpXpXpXpXpX",
"pXpXpXpXpXpXpXpXpXpXpXpXpXpXr & - & & $ n o.O.+.m.m.m.m.m.v.b.m.m.M.:.T T :.I.P.P.>XqX5XF $ $ t pXpXpXpXpXpXpXpXpXpXpXpXpXpXpXpX",
"pXpXpXpXpXpXpXpXpXpXpXpXpXpX$ $ $ $ $ $ V v.m.m.m.m.m.m.m.m.m.m.m.V.>.Y Y >.V.m.m.:XqX5XF $ $ t pXpXpXpXpXpXpXpXpXpXpXpXpXpXpXpX",
"pXpXpXpXpXpXpXpXpXpXpXpXpXpX& $ $ $ $ $ V v.m.m.V.V.V.m.m.m.m.z.z.M.>.Y Y >.V.m.m.:XuX7XG   @ 7 pXpXpXpXpXpXpXpXpXpXpXpXpXpXpXpX",
"pXpXpXpXpXpXpXpXpXpXpXpXpXh V Z A H J J } m.m.b.>.>.>.b.m.m.K.|.{. XA.m.m.m.M.m.m.R.!.!.| J J { pXpXpXpXpXpXpXpXpXpXpXpXpXpXpXpX",
"pXpXpXpXpXpXpXpXpXpXpX# & C j.m.G.7XqXtX).m.m.l.Y Y Y b.m.m.R.qXqXqXR.m.m.m.m.m.m.m.m.m.).tXwX1X; $ 1 pXpXpXpXpXpXpXpXpXpXpXpXpX",
"pXpXpXpXpXpXpXpXpXpXpX$ + m h.m.Z.8XrXyX).m.m.c.Y Y Y m.m.m.T.qXqXqXT.m.m.m.m.m.m.m.M.B.).tXqX<X; + : pXpXpXpXpXpXpXpXpXpXpXpXpX",
"pXpXpXpXpXpXpXpXpXpXpX$ + m h.m.m.T.E.E.H.m.m.b.>.>.>.A.T.T.~.#X+X#XL.m.m.m.m.m.m.m.M.M.H.[.@X].q + < pXpXpXpXpXpXpXpXpXpXpXpXpX",
"pXpXpXpXpXpXpXpXpXpXpX$ + m h.M.M.T T T b.m.m.m.V.V.N.^.,X,X.XG.H.H.C.m.m.m.m.m.b.:.T T ;.S.H.D.$.@.O.b X . pXpXpXpXpXpXpXpXpXpX",
"pXpXpXpXpXpXpXpXpXpXpX$ + m h.M.M.Y Y Y b.b.m.m.m.m.z.{.qXqX$Xm.m.m.m.m.m.m.m.m.b.-.Y Y >.V.m.m.m.m.h.M ; $ pXpXpXpXpXpXpXpXpXpX",
"pXpXpXpXpXpXpXpXpXpXpX$ $ m h.M.M.Y Y Y b.b.m.m.M.M.m.}.qXqX$Xm.m.m.m.m.m.m.m.m.m.>.Y Y >.m.m.m.m.m.h.m $ $ pXpXpXpXpXpXpXpXpXpX",
"pXpXpXpXpXpXpXpXpXpXpX$ $ z 2.7.w.t.t.t.g.m.m.m.>.>.>.Z.U.U.J.m.m.M.u.>.>.u.E.*XW.b.b.m.D.E.(.&XZ.m.h.m $ $ pXpXpXpXpXpXpXpXpXpX",
"pXpXpXpXpXpXpXpXpXpXpX$ $ f ) ] ] [ [ [ e.m.m.m.Y Y Y c.m.m.m.m.m.V.>.Y Y >.E.qX2XD.m.m./.tXqX7XG.m.h.m $ $ pXpXpXpXpXpXpXpXpXpX",
"pXpXpXpXpXpXpXpXpXpXpX$ : l ) ] ] ] ] ] q.m.m.m.Y Y Y m.m.m.m.m.m.m.>.Y Y >.R.qXqXK.m.m.).uXqX6XD.m.h.m + $ pXpXpXpXpXpXpXpXpXpX",
"pXpXpXpXpXpXpXpXpXpXpX$ , g ~ ^ ^ ^ ^ ! ..i.f.m.T T T z.d.p.p.p.p.d.:.T T :.Y.=X=Xx.i.a.G.].'.).#.X. .c % - pXpXpXpXpXpXpXpXpXpX",
"pXpXpXpXpXpXpXpXpXpXpXpXpXpX$ $ + + + + x %.<.9.0.0.0.9.*.&.&.&.&.*.s.V.V.M.B.Z.Z.8.&.&.*.6.5.,.$ + & pXpXpXpXpXpXpXpXpXpXpXpXpX",
"pXpXpXpXpXpXpXpXpXpXpXpXpXpX+ $ $ $ $ + k ' ] ] ] ] ] ] ] ] ] ] ] ] y.m.m.m.m.m.m.6.] ] ] ] ] ( : $ $ pXpXpXpXpXpXpXpXpXpXpXpXpX",
"pXpXpXpXpXpXpXpXpXpXpXpXpXpX2 $ & & : $ j ( _ ` ] ] ] ] ] ] ] ] ] ] r.m.z.z.j.j.j.1._ _ _ _ ` / 9 $ $ pXpXpXpXpXpXpXpXpXpXpXpXpX",
"pXpXpXpXpXpXpXpXpXpXpXpXpXpXpXpXpXpXpXpXpX$ : : ' ] ] ] ] ] ] ] ] ] *.3.4.v + + + + $ $ , 0 0 e pXpXpXpXpXpXpXpXpXpXpXpXpXpXpXpX",
"pXpXpXpXpXpXpXpXpXpXpXpXpXpXpXpXpXpXpXpXpX$ + + ' ] ] ] ] ] ] ] ] ] ] ] ] l o + + + $ $ $ $ $ $ pXpXpXpXpXpXpXpXpXpXpXpXpXpXpXpX",
"pXpXpXpXpXpXpXpXpXpXpXpXpXpXpXpXpXpXpXpXpX$ + + ] [ [ [ [ [ [ [ [ [ [ [ [ l $ $ $ $ $ $ $ $ $ $ pXpXpXpXpXpXpXpXpXpXpXpXpXpXpXpX",
"pXpXpXpXpXpXpXpXpXpXpXpXpXpXpXpXpXpXpXpXpX- $ $ Q W W Q Q Q W E R R R R E d : $ $ $ $ $ & y u s pXpXpXpXpXpXpXpXpXpXpXpXpXpXpXpX",
"pXpXpXpXpXpXpXpXpXpXpXpXpXpXpXpXpXpXpXpXpXpXpXpX> ; ; ; ; ; ; $ + + $ $ + pXpXpXpXpXpXpXpXpXpXpXpXpXpXpXpXpXpXpXpXpXpXpXpXpXpXpX",
"pXpXpXpXpXpXpXpXpXpXpXpXpXpXpXpXpXpXpXpXpXpXpXpX1 $ $ $ $ $ $ $ $ $ $ $ # pXpXpXpXpXpXpXpXpXpXpXpXpXpXpXpXpXpXpXpXpXpXpXpXpXpXpX",
"pXpXpXpXpXpXpXpXpXpXpXpXpXpXpXpXpXpXpXpXpXpXpXpX1 $ $ $ $ $ $ $ $ $ $ $ # pXpXpXpXpXpXpXpXpXpXpXpXpXpXpXpXpXpXpXpXpXpXpXpXpXpXpX",
"pXpXpXpXpXpXpXpXpXpXpXpXpXpXpXpXpXpXpXpXpXpXpXpXpXpXpXpXpXpXpXpXpXpXpXpXpXpXpXpXpXpXpXpXpXpXpXpXpXpXpXpXpXpXpXpXpXpXpXpXpXpXpXpX"
};
