/* XPM */
static char *f3075ff4d97b4b1bfc8c656bafd26a7a2auYt4Ye58WhuISp[] = {
/* columns rows colors chars-per-pixel */
"64 64 40 1 ",
"  c #714315",
". c #6F4215",
"X c #6E4114",
"o c #663C13",
"O c #643B12",
"+ c #5F3811",
"@ c #623A12",
"# c #6C4014",
"$ c #704215",
"% c #704315",
"& c #6D4114",
"* c #5C3610",
"= c #5A3510",
"- c #603911",
"; c #6A3E13",
": c #633A12",
"> c #633B12",
", c #693E13",
"< c #653C12",
"1 c #5B3610",
"2 c #603811",
"3 c #6B4014",
"4 c #683E13",
"5 c #5D3711",
"6 c #5E3711",
"7 c #6A3F13",
"8 c #6A3F14",
"9 c #683D13",
"0 c #5B3510",
"q c #673D13",
"w c #6D4014",
"e c #613912",
"r c #5E3811",
"t c #6F4214",
"y c #663D13",
"u c #6B3F14",
"i c #613911",
"p c #653B12",
"a c #5C3611",
"s c #6E4215",
/* pixels */
"                                                                ",
"                                                                ",
"                                                                ",
"                                                                ",
"                                                                ",
"        .XX                                                     ",
"       oO+@O#          $X%              $X.                     ",
"     &O*====-;        X:+>X             ,-<.                    ",
"    .O1======23      %<===o%            45@.                    ",
"    &6========o      .@===>$            X73    %#78.            ",
"    75========>.      9*0*,                    4+*5@X           ",
"    ,*========@.      $7q8$                   w-====q$          ",
"    #6========o$                              w5====O$          ",
"    .e=======5,                               w+====o$          ",
"     #-=====5q                                 o501-#           ",
"     $w@+5r+9t                                 $7q9&            ",
"        &##                       %.                            ",
"                                 X<@q.                          ",
"                                %O==1,                          ",
"                                t-===o                          ",
"                                %O==1,                          ",
"                                 Xo>4.                   X,,X   ",
"     %87$                         %$                    $@**:%  ",
"     &2r#                                               #5==5w  ",
"     X:@#          .X.                                  X6==rX  ",
"      XX          $y+q%                       ..         q++4   ",
"                  $<*o%                      XO@3         XX    ",
"                   &8&                       X-58               ",
"                                             $;,t               ",
"                                                                ",
"                            $&&.                                ",
"                           $<+rOX                               ",
"      .XX                 $y1==1O.               Xu94&          ",
"     XOr-y%               .i====rX              X@*11+,         ",
"    .>0==*4%              .@====+X             %:=====57        ",
"    &6====:.              %95==*o%             &5======p%       ",
"    &r====>.                4@eq$              3a======@$       ",
"    $O1==5,%                %..$               w5======O$       ",
"     .o2@9                                     %@=====5;        ",
"      .tt                                       &e10064         ",
"                                                 &;oq#          ",
"             %u8$                                               ",
"             X-r#                                               ",
"             X@e#                                               ",
"              XX                                                ",
"                                                                ",
"                                    #ut                         ",
"                                   .:54                         ",
"              $XX$                 .O+,                         ",
"             %<+2o                  XX$                         ",
"            $<1==*y$                                   ..       ",
"            X+====-X                                  XOOX      ",
"            X+====-X                       $X%        &r6w      ",
"            $o*==*q$                      w@r:X       .49.      ",
"             %o2-y                       $>===q                 ",
"              $XX$           X7#$        .e===O%                ",
"    X9,$                    &-*5q         9*158                 ",
"    ;5-X                    91==+X        $u9#$                 ",
"    3:<.                    ,*==-.                              ",
"    &s.                     X>627                               ",
"    $$                       %&.                                ",
"                                                                ",
"                                                                ",
"                                                                "
};
