/* XPM */
static char *e447f35dbbb24823aaae05b0da631ed2co67AC6z49IlMJNX[] = {
/* columns rows colors chars-per-pixel */
"64 64 145 2 ",
"   c None",
".  c black",
"X  c #010000",
"o  c #000001",
"O  c #010001",
"+  c #000101",
"@  c #010101",
"#  c #010102",
"$  c #020102",
"%  c #020103",
"&  c #030103",
"*  c #010202",
"=  c #010203",
"-  c #010303",
";  c #030202",
":  c #020303",
">  c #040302",
",  c #010304",
"<  c #030204",
"1  c #020304",
"2  c #020305",
"3  c #070105",
"4  c #040204",
"5  c #020405",
"6  c #030405",
"7  c #020505",
"8  c #020406",
"9  c #020506",
"0  c #030506",
"q  c #030507",
"w  c #040404",
"e  c #060504",
"r  c #070605",
"t  c #080206",
"y  c #0B0907",
"u  c #0B0A07",
"i  c #040709",
"p  c #0A040A",
"a  c #0D050D",
"s  c #0F050F",
"d  c #05090B",
"f  c #05090C",
"g  c #050A0C",
"h  c #050A0D",
"j  c #060A0D",
"k  c #060B0E",
"l  c #070C0F",
"z  c gray4",
"x  c #0B0B0B",
"c  c #110E0B",
"v  c #060C10",
"b  c #060D10",
"n  c #060D11",
"m  c #070D11",
"M  c #080E12",
"N  c #080F14",
"B  c #120712",
"V  c #170615",
"C  c #180615",
"Z  c #180616",
"A  c #150815",
"S  c #1E0C1E",
"D  c #091014",
"F  c #091115",
"G  c #0E1920",
"H  c #111F28",
"J  c #230920",
"K  c #270B24",
"L  c #250E25",
"P  c #280B25",
"I  c #60225F",
"U  c #612360",
"Y  c #612461",
"T  c #642564",
"R  c #662666",
"E  c #672667",
"W  c #488BB3",
"Q  c #4A8EB6",
"!  c #4A8FB7",
"~  c #478FBA",
"^  c #488FB9",
"/  c #498FB9",
"(  c #4A8FB8",
")  c #4B8FB8",
"_  c #4B8FB9",
"`  c #488FBA",
"'  c #4790BB",
"]  c #4790BC",
"[  c #4B90B9",
"{  c #4890BB",
"}  c #4990BB",
"|  c #4891BB",
" . c #4991BB",
".. c #4B91BA",
"X. c #4A91BB",
"o. c #4B91BB",
"O. c #4B92BB",
"+. c #4C91B9",
"@. c #4F92B9",
"#. c #4C90BA",
"$. c #4C91BA",
"%. c #4C91BB",
"&. c #4C92BA",
"*. c #4D92BA",
"=. c #4C92BB",
"-. c #4D92BB",
";. c #4E92BA",
":. c #4E93BB",
">. c #4A91BC",
",. c #4B91BC",
"<. c #4992BD",
"1. c #4A92BC",
"2. c #4B92BC",
"3. c #4B93BD",
"4. c #4B93BE",
"5. c #4C92BC",
"6. c #4D92BC",
"7. c #4C93BC",
"8. c #4D93BC",
"9. c #4C92BD",
"0. c #4C93BD",
"q. c #4D93BD",
"w. c #4B94BE",
"e. c #4B94BF",
"r. c #4D94BD",
"t. c #4D94BE",
"y. c #4D95BE",
"u. c #4D95BF",
"i. c #4E95BF",
"p. c #5794B6",
"a. c #5694B8",
"s. c #5596BA",
"d. c #4E95C0",
"f. c #FED9A9",
"g. c #FFD9A9",
"h. c #FFDAA8",
"j. c #FFDBA8",
"k. c #FFDAA9",
"l. c #FFDBA9",
"z. c #FFDCA9",
"x. c #FFDEA9",
"c. c #FFDCAA",
"v. c #FDFDFE",
"b. c #FEFEFE",
"n. c white",
/* pixels */
"                                                                                                                                ",
"                                                                                                                                ",
"                                                                                                                                ",
"                                                                                                                                ",
"                                                                                                                                ",
"                                                                                                                                ",
"                                                                                                                                ",
"                                                                                                                                ",
"                                                                                                                                ",
"                                                                                                                                ",
"                                                                                                                                ",
"                                    . . . . . . . . . . . . . . . . . . . . . . . . . . .                                       ",
"                              . . . . f b b b b f i . . . . . . . . . . . . . . . . . . . .                                     ",
"                            . . . . . . . . . . . . . . . q f f l N M F F l . . . . . . . . .                                   ",
"                        . . . . . . . 2.6.6.t.2.6.2.t.6.6.2.6.2.6.O.O.O.O.O.O.O.O.O.O.O.6.. . .                                 ",
"                        . . A s 4 . < 6.2.2.2.O.O.O.2.t.2.6.2.6.O.O.O.O.O.O.O.O.O.O.O.6.2.! . . .                               ",
"                      . . E E U Z . . 6.O.t.2.n.n.. . . n.n.a.( ( @.O.@.@.O.2.2.O.O.2.O.6.2.6.O.. .                             ",
"                      . < E E U J . . 2.O.2.6.n.n.. x . n.n.6.2.( O.2.2.O.6.O.6.2.6.O.@.2.6.2.2.. .                             ",
"                      . 4 E E E P . . 6.2.6.w.n.n.. . . n.n.O.6.2.2.O.6.2.2.2.2.6.6.O.O.O.O.6.! . .                             ",
"                      . < T E E P . . 6.O.w.6.n.n.. . . n.n.O.2.6.2.O.. i . @.d.t.2.O.O.O.O.. < . .                             ",
"                      . 4 E T T V . . 6.O.6.w.n.n.. . . n.n.2.6.2.2.2.. . . O.t.w.O.O.O.O.O.. . . .                             ",
"                      . . . . . . . . 2.O.w.6.n.n.. . . n.n.6.2.6.2.2.i 9 . O.t.O.O.O.O.O.O.9 9 . .                             ",
"                      . . . . . . . . 6.@.w.w.n.n.. . . n.n.2.6.6.O.O.6.O.O.O.O.O.O.O.O.O.O.( ( l .                             ",
"                        . . . . . . . 2.@.t.6.n.n.. . . n.n.6.2.2.2.6.2.6.w.O.O.O.O.6.O.O.2.@.6.H .                             ",
"                          . . E E E A . 2.2.2.2.2.2.2.6.6.2.2.6.6.O.6.d.w.t.O.O.O.O.2.O.t.@.6.2.. .                             ",
"                          . 4 E E E . . d.2.2.@.2.2.6.2.2.6.6.2.2.@.2.@.O.O.2.@.6.O.O.O.2.2.2.6.. .                             ",
"                          . . E E E . . w.d.w.2.w.d.2.2.6.2.6.2.2.2.6.2.2.2.2.2.6.2.O.O.O.2.6.2.. .                             ",
"                          . . E E T . . w.2.w.] 2.6.2.2.2.6.2.6.2.6.2.2.6.6.2.6.2.6.2.O.O.2.2.6.. .                             ",
"                          . . Y E E p . 6.6.d.d.d.2.2.6.2.6.2.2.6.2.O.O.2.6.2.6.6.6.2.t.6.6.2.O.. .                             ",
"                          . . s S L Z p w.2.2.d.d.2.6.2.6.2.2.@.2.6.O.7.6.2.. . . . . f < . 9 l < .                             ",
"                            . . . . . . 2.2.6.2.2.2.2.6.2.2.6.O.6.2.2.w.2.6.. . . . . . . . . . . .                             ",
"                              . . . . . . 9 2.6.2.2.6.2.6.2.2.' O.O.2.2.6.2.< . 9 . . . . . . . . .                             ",
"                                      . . . . < 6.2.2.2.' ' ' ' ' ' ] ' ~ ' 6.2.. .                                             ",
"                                        . . . . 2.6.2.~ ' ' ' ' ' ' ' ~ ' ' 2.6.. .                                             ",
"                                            . . 6.2.2.2.' ' O.@.' ' ' O.' ' ' O.. .                                             ",
"                                            . . 2.6.@.f.f.f.f.f.f.f.f.f.f.f.f.f.. >                                             ",
"                                            < . 6.2.6.f.f.x.f.f.f.f.f.f.f.f.f.f.r >                                             ",
"                                            . . 2.6.2.f.x.x.f.f.f.f.f.f.f.f.f.f.q .                                             ",
"                                . . . . . . . . 2.2.2.f.f.x.f.f.f.f.f.f.f.f.f.f.y .                                             ",
"                                . . 9 . . . . . 2.2.~ f.f.f.f.f.f.f.f.f.f.f.f.f.c .                                             ",
"                                . . ' ' ' ' ' 2.6.~ ] f.f.f.f.f.f.f.f.f.f.f.f.f.y .                                             ",
"                                . . 2.6.2.6.2.6.2.~ ] f.f.f.f.f.f.f.f.f.f.f.f.f.. .                                             ",
"                                . . ' 2.O.2.6.( 6.2.a.f.f.f.f.f.f.f.f.f.f.f.f.f.. .                                             ",
"                                . . . 6.2.6.2.6.2.6.2.@.@.6.2.s.f.f.f.f.f.~ O.W . .                                             ",
"                                . q . f 2.6.2.6.2.6.2.6.O.' ' ] f.f.f.f.f.@.' ' . .                                             ",
"                                  . x . . . G 9 6.2.6.2.' 2.' ] ' O.' ~ ] 6.2.' . .                                             ",
"                                    . . . . . < 2.6.2.O.2.O.2.6.2.2.6.6.6.6.2.] . <                                             ",
"                                            . . 6.2.2.6.2.2.2.6.2.6.O.2.' 2.2.~ . q                                             ",
"                                            . . 6.2.6.2.6.. . . . N f ] 2.2.2.2.. q                                             ",
"                                            . . 2.6.2.6.9 . . . . . . 2.2.6.2.@.. .                                             ",
"                                            . . 6.2.6.. . .       . . 6.2.2.6.. . .                                             ",
"                                            . . 2.6.. . .         . . ( 2.6.. . .                                               ",
"                                            . q 6.. . <           . q ~ O.. . .                                                 ",
"                                            . . . 9 9             . . . . . .                                                   ",
"                                            . . . <               . . . . .                                                     ",
"                                                                                                                                ",
"                                                                                                                                ",
"                                                                                                                                ",
"                                                                                                                                ",
"                                                                                                                                ",
"                                                                                                                                ",
"                                                                                                                                ",
"                                                                                                                                ",
"                                                                                                                                "
};
