/* XPM */
static char *_f6e809618d044938a399ce80e596e46qxxddNGUtNOE82rc[] = {
/* columns rows colors chars-per-pixel */
"64 64 10 1 ",
"  c #2C6215",
". c #112807",
"X c #3B831C",
"o c #316D17",
"O c #36781A",
"+ c #1B430A",
"@ c #22530C",
"# c #0B0505",
"$ c #3E8C1D",
"% c #251712",
/* pixels */
"    ....XXXXoOoO++++................................@@@@....OOOO",
"    .#..OXOXooOo++++..#..#..#..#.....#..#..#..#..#..+@@@.#..oOOO",
"   @....XXXXoOoO+@+@#.....#..............#.....#....@@@+....OOOO",
"    .#.#XXOXOooO++++...#....#.........#....#.....#..+@@@..#.oOOO",
"@+@+....XXXXoooo....++++.#....#......+.+#...OoOO$XXX@@@@#...++++",
"@@@@....XXXXoooo.%.#++++....#.....+.+++.....OOOOXXXX+@+@...#++++",
"@+@@#.#.XXXXooo ....++++..#..........+.+..#.OOOOXXXX@+@+....++++",
"@@@+....XXX$oooo.#..++++.....#....+.+.+.....oOOOXXXX@@+@%.#.++++",
"..%.....OOOO....@@++XXXXXXXO....oo oOOOO....XOOOOOOO%...X$$$XXXX",
"...#.#..oOOO..#.++@+$XXXXXXX.#.#oo oOOOO....OOXOOOOO..#.X$$$XXXX",
".#......OOOX#...+@+@XXXXXXXX.... o oOOOO....OOOOOOOo....$$$$XXXX",
"....#.#.OOOO....+@++XXXXXXXX.... oooOOOO....OXOOOOOO.#..X$$$XXXX",
"..#...........#..%..XXXXooo ..#.XXOXoooo+.+.XXXXOOOo....XXXX o  ",
".....#..#..#........OXXXoooo.#..OXXXoooo.+.+XXXXOOOO..#.XXXX   o",
"#..#.....#...#..#.#.XXXXooo ....XOXXoooo+.+.XXXXOOOo....XXXXo o ",
"..#...#........#....XXXXoooo..#.OXXOoooo.+.+XXXXOOOO.#..OXXX  o ",
"....XXXXXXXX#....#..$$$$@+@+.... oooOOOO...#....ooo ....oooooooo",
"..#.XXXXX$X$..#....#$$$$@+@+.#.. o oOXOO.....#.. ooo.#.#oo ooooo",
"#...XXXXXXXX....#...$$$$+@@+.... oooOOOX#.#.....ooo ....oooooooo",
"...#XXXX$$X$........X$$$@@+@..#. o oOOOO....#..#oooo..#. oo oooo",
"....XXXXOOOO#.#.++++    ++@+#...@@@@ooOo....++++....@@ @.... @ @",
".#..XXXXOOOO....++++    ++++...#@@@@oOoo.#.#++++.#..@  @..#.@ @ ",
"....XXXXOOOO..#.++++    @+@+....@@@@oooo....+++..... @  #...@ @ ",
"..#.OXXXOOOO....++++    ++++.#..@@@@oOoO..#.++++.#.# @ @...# @ @",
"++++ o  ....@@@@++++....X$$XX$XX%.......++++%.#.....@@@@@@@@.+.+",
"++++ o o.#..@@@ ++++.%..XXX$XXXX..#..#..++++....#...@@@@@@@@.+..",
"++++o   ...%@ @@++++..#.$X$XX$XX......#.++++.#....#.@@@@@@@@.+.+",
"++++  o ..#.@@@ +@++....XX$X$XXX.#..#...++@+...#....@@ @@@+@..+.",
"$XX$XXXX....$$$$XXXX++++$$$$oooo....Oooo$XXX++++.#..+@++.%..++++",
"$$$$XXXX.#..X$$$XXXX++++$$$$Oooo..#.ooOoXX$X++++...#@+@@%...++++",
"$$$$XXXX....$$$$XXXX++++$$$$oooo....oOoOXXX$++++#...@@++..#.++++",
"$$$$XXXX..#.X$$$XXXX++++$$$$OoOo.#..ooOoX$XX++++...#@+@@.#..++++",
"$$$$oooo#...     o o@ @ OOOOOoOo....@@@@o o .%...#..XXXX    @@@@",
"$$$$ooOo...#      o @ @ oOOOOOoO.#..@@ @oooo........XXXX    @@@@",
"$$$$oooo.#..     o o@ @@OOoOoOOo..#.@@@@ o o#..#.#..XXXX    @ @@",
"$$$$oooo....     o   @ @OOOOoOoO....@@@@oo o.......#XXXX    @@@@",
"oOoO++++.#..++++oooo..%.OoOo............oooo..#.+++@$$$$ oo .%..",
"oOoo++++...#@+@+oooo....oOOO..#......%.. ooo....++++$$$$oo o....",
"oOoO++++#...++++oooo#.#.OoOO#.........#.oooo#.#.++++$$$$ oo ..#.",
"oOoO++@+....++@+oooo....oOOO............oooo....++@+$$$$o oo....",
"++++..%...#...%.....+++.+++...#. oo ooo ........++++OoOo.....#..",
"++++...#....#...#..#+.+++.++....  o oooo..#..#.#++.+oOoO.#..#...",
"++++.#...#...#...#..+++.+++..#.. o ooooo...#....++++OoOo..#...#.",
"++++....#......#.....++++.++....   ooooo.#....#.+.++oOoO........",
"oooo.#..XXOOXX$X..#..#.%...#..#.oooo@@@@....OXXO    ....++++OOOO",
"oOoo...#XXXXX$X$........#....#..oooo@@@@..#.OOXO    .#..+@@@OXOX",
"oooO#...XXOXX$$$#..#..#....#....oooo@@@@#...XXOX    ....+@+@OXOO",
"oooo....OXXX$X$X.........#....#.oooo@@@@...#XOXX    ..#.+@@+XOXO",
"@+@+..#.$$$$oOoo..#.XXXXXXXO........   @....@  @OOOO#...@+@@XXX$",
"+@+@.#..$$$$OoOo....XX$XXXXX.#..#..# @  %.#. @ @OOOO...#@@@@X$XX",
"+@++....$$$$oOoo.#..$$$$XXXO.....#.. @ @....@ @ OOOo....@@+@$X$$",
"@+@+..#.$$$$OoOo...#$XX$XXXX..#.....@  @.#..@ @ OOOO.#..+@@@XX$X",
"@@@@....@   oooo#...XXXX o  .....#..++++....    @@ @$$X$XOXO....",
"@@@@%...@ @@oooo....OXXOoo o.#..#...++++..#.     @ @$$$$XXXX.#..",
"@@@@..#.@ @ oooo..#.XOXXo o ......#.++++....    @ @ $$$$XOXO..#.",
"@@@@....@@ @oooo....OXXX o o..#.....++++.#..     @ @$$$$XXXX....",
"+++...#..%..@@@+++++oOoo....#....#..    ++.+    ....$$$$ o o++++",
"+.++%.....#.+@@@++++OoOO.#.....#...#    ++++    .#..XX$Xoooo++@+",
"++.+.#..#...@@+@++++oOoo..#..#......    .+.+    ..#.$X$$o oo+@++",
"++++...#....+@@@++++OOoO........#...    ++++    ....X$$Xoooo+++@",
"XXXX#.....#...%.%... ooo#..#++++$XXX$$$$++++.....#..OOOO@+@+XXXX",
"XXXX...#....#.....#.oo o....++++X$$$$$$$++++.#..#...OOOO@+@+XOXO",
"XXXX.#....#...#.#... oo ..#.++++$$X$$$$$@+@+..#.....OOXO+@+@XXOX",
"XXXX...#.....#.....#oooo....++++X$$X$$$$++++.....#.#OOOO@@+@OXXO"
};
