/* XPM */
static char *_6901281acbe43f8f7ab17b736e5a4a19QDEiJJVWNsC0Tox[] = {
/* columns rows colors chars-per-pixel */
"64 64 116 2 ",
"   c None",
".  c #73253F",
"X  c #74253F",
"o  c #74263F",
"O  c #75263F",
"+  c #75273F",
"@  c #76273F",
"#  c #79293E",
"$  c #78283F",
"%  c #79293F",
"&  c #7C2B3F",
"*  c #752841",
"=  c #782940",
"-  c #9E433D",
";  c #A84837",
":  c #A3463D",
">  c #A0443E",
",  c #A3473E",
"<  c #A6473C",
"1  c #A7483C",
"2  c #A7493C",
"3  c #A6493D",
"4  c #A7493D",
"5  c #A5493E",
"6  c #A5493F",
"7  c #A6493E",
"8  c #A7493E",
"9  c #A74A3E",
"0  c #A8493B",
"q  c #A8493D",
"w  c #AA493D",
"e  c #A84A3D",
"r  c #A94A3D",
"t  c #A94B3D",
"y  c #AA4A3D",
"u  c #AA4B3D",
"i  c #A9493E",
"p  c #A84A3E",
"a  c #A94A3E",
"s  c #A94B3E",
"d  c #A84A3F",
"f  c #A84B3F",
"g  c #AA4A3E",
"h  c #D3740A",
"j  c #D3750B",
"k  c #D3750C",
"l  c #892D45",
"z  c #C23A53",
"x  c #C33A53",
"c  c #C33B54",
"v  c #C43C54",
"b  c #C43C55",
"n  c #C43D55",
"m  c #C53E55",
"M  c #C53F56",
"N  c #9E4540",
"B  c #A54940",
"V  c #A64940",
"C  c #A74D45",
"Z  c #A94C40",
"A  c #AC4F43",
"S  c #AD5144",
"D  c #C54056",
"F  c #C64056",
"G  c #C64057",
"H  c #C64157",
"J  c #C24656",
"K  c #C74258",
"L  c #C74358",
"P  c #CB4A5C",
"I  c #CB4B5D",
"U  c #FB7B66",
"Y  c #FC7964",
"T  c #FD7964",
"R  c #FC7A65",
"E  c #FD7A65",
"W  c #FC7B66",
"Q  c #FC7C67",
"!  c #FC7D68",
"~  c #FDA78F",
"^  c #FEA68F",
"/  c #FAA390",
"(  c #FDA790",
")  c #FEA890",
"_  c #FEA990",
"`  c #FEA891",
"'  c #FDA992",
"]  c #FEA992",
"[  c #FEA993",
"{  c #FEAA92",
"}  c #FEAA93",
"|  c #FEAA94",
" . c #FEAB94",
".. c #F9AC96",
"X. c #FBD3C1",
"o. c #FDD2C0",
"O. c #FED5C2",
"+. c #FED6C2",
"@. c #FED6C3",
"#. c #FFD6C3",
"$. c #FDD8C5",
"%. c #FED8C5",
"&. c #FED9C6",
"*. c #FED9C7",
"=. c #F9F2EA",
"-. c #F9F3EC",
";. c #F9F4ED",
":. c #F9F5EF",
">. c #FAF5EF",
",. c #F9F5F0",
"<. c #FAF6F1",
"1. c #F9F6F2",
"2. c #FAF6F2",
"3. c #FAF7F2",
"4. c #FAF7F3",
"5. c #FBF9F6",
/* pixels */
"                                                                                                                                ",
"                                                                                                                                ",
"                                                                                                                                ",
"                                                                                                                                ",
"                                                                                                                                ",
"                                                                                                                                ",
"                                                                                                                                ",
"                                                                                                                                ",
"                                                                                                                                ",
"                                                                                                                                ",
"                                                                                                                                ",
"                                                                                                                                ",
"                                                                                                                                ",
"                                                                                                                                ",
"                                                                                                                                ",
"                                                                                                                                ",
"                                                          D D D v D D v v v c x x                                               ",
"                                                      . l D D D K D K I P K D K c c                                             ",
"                                                    . . * *.*.{ [ [  .{ [ [ { { { M M                                           ",
"                                                  . . @ C *.*.{ { { [ {  .[ { ~ { x M                                           ",
"                                                . . . - p *.*.{ { [ ! R Y Y Y Y [ / [ D D                                       ",
"                                              . . . . : p *.*.{ [ [ Y Y Y Y Y Y [ [ [ M D                                       ",
"                                              . . , 0 6 p *.*.{ { { Y Y { *.*.[ { Y T [ [ K D                                   ",
"                                              . . 6 p 0 t %.*.{ [ { Y R { *.*.[ { R R [ { x M                                   ",
"                                              . . 6 p p p p p *.+.[ [ [ R R [ *.*.{ { Y R { D c                                 ",
"                                              . . B p p p 6 0 *.*.[ { { R Y { *.*.{ { R Y { K M                                 ",
"                                              . @ B p p p p p *.*.{ { { R T ! R { *.*.Y Y ( D D                                 ",
"                                              . = p p p p p Z o.X.{ [ { Y Y Y Y { *.+.Y Y ~ K D                                 ",
"                                              . @ B w p p p p p p S %.*.{ [ [ [ { { [ Y T { L D                                 ",
"                                              . @ V p p p p p < p p %.*.{ { {  .Y Y R R T [ D L                                 ",
"                                              . . B p p p p p p p p p ..{ { [  .R Y R T T [ L D                                 ",
"                                              . . B p p p p p p p p p 6 *.%.+.*. .[ { [  .[ D L                                 ",
"                                              = . - p p p p p p p 0 p p *.*.*.*.{ { [ { [  .H H                                 ",
"                                                . > p p p p p p p p p p p t t p A +.*.*.*.*.L H                                 ",
"                                                . 6 p p p p p p p p p p 0 0 6 p p *.*.*.*.*.D H                                 ",
"                                                h p p p 0 p p p p p p p p p p p p p p p p p J D                                 ",
"                                              h h 2.2.p ; p p p p p p u p y p p p p p p p . . x                                 ",
"                                            h h 3.4.2.2.p 6 p p p p p V p y p w w p p @ . . .                                   ",
"                                          h h 4.4.4.5.2.2.* @ 6 p p w t w w w p p 0 6 @ .                                       ",
"                                    h h h h -.4.2.2.4.2.2.. . . p p p p p p p p 6 6 @ . .                                       ",
"                                  h >.4.4.4.4.4.3.3.;.h h     . * @ $ # # # = . . @ . .                                         ",
"                                  h 4.4.4.4.4.4.4.>.h h       @ . . . . . . @ . . . .                                           ",
"                                  h 4.4.4.4.4.4.4.h h                                                                           ",
"                                  h 4.5.<.<.4.4.h h                                                                             ",
"                                  h 4.4.4.4.4.4.h                                                                               ",
"                                    h h 4.4.4.4.h                                                                               ",
"                                      k 4.4.<.-.h                                                                               ",
"                                        h h h h                                                                                 ",
"                                                                                                                                ",
"                                                                                                                                ",
"                                                                                                                                ",
"                                                                                                                                ",
"                                                                                                                                ",
"                                                                                                                                ",
"                                                                                                                                ",
"                                                                                                                                ",
"                                                                                                                                ",
"                                                                                                                                ",
"                                                                                                                                ",
"                                                                                                                                ",
"                                                                                                                                ",
"                                                                                                                                ",
"                                                                                                                                ",
"                                                                                                                                "
};
