/* XPM */
static char *e953f57383b14910f26e236628d2ad30KQ9qpBBPIYj0rp62[] = {
/* columns rows colors chars-per-pixel */
"64 64 134 2 ",
"   c None",
".  c #000000",
"X  c #0F0F0F",
"o  c gray8",
"O  c #1A1A1A",
"+  c #0E1C2A",
"@  c #0D2032",
"#  c #0C263A",
"$  c #252525",
"%  c gray22",
"&  c #0B2B44",
"*  c #0C2F49",
"=  c #0C304C",
"-  c #0C3552",
";  c #0C3C5D",
":  c #103856",
">  c #113A58",
",  c #0D3F61",
"<  c #0D4265",
"1  c #0E456A",
"2  c #144365",
"3  c #16476B",
"4  c #17486C",
"5  c #0E4971",
"6  c #114D76",
"7  c #194B70",
"8  c #114F79",
"9  c #13527C",
"0  c #165681",
"q  c #185783",
"w  c #165884",
"e  c #195985",
"r  c #1B5D8B",
"t  c #1C618F",
"y  c #1D6492",
"u  c #1E6798",
"i  c #1F6A9B",
"p  c #23648F",
"a  c #266793",
"s  c #2A6B96",
"d  c #226B9C",
"f  c #2D6F9A",
"g  c #2F709B",
"h  c #246FA2",
"j  c #2472A6",
"k  c #2873A5",
"l  c #2675AA",
"z  c #2778AE",
"x  c #2879AF",
"c  c #3B7DA8",
"v  c #297BB2",
"b  c #317FB2",
"n  c #3D81AD",
"m  c #2D82BB",
"M  c #3A8ABD",
"N  c #4487B2",
"B  c #4288B4",
"V  c #468FBD",
"C  c #4E91BB",
"Z  c #5195BF",
"A  c #2F86C1",
"S  c #2F88C3",
"D  c #3187C1",
"F  c #318AC5",
"G  c #3C8FC5",
"H  c #338ECB",
"J  c #3591CD",
"K  c #3C94CE",
"L  c #4391C5",
"P  c #4A93C0",
"I  c #4397CD",
"U  c #4997C9",
"Y  c #4498CF",
"T  c #4A9BCE",
"R  c #5399C5",
"E  c #589CC6",
"W  c #519ECF",
"Q  c #599FCA",
"!  c #4197D0",
"~  c #469AD1",
"^  c #4F9DD0",
"/  c #4E9FD4",
"(  c #4A9CD2",
")  c #509ED0",
"_  c #509FD3",
"`  c #529ED0",
"'  c #53A0CF",
"]  c #54A0CF",
"[  c #57A1CF",
"{  c #55A0CF",
"}  c #5BA0CA",
"|  c #58A1CF",
" . c #59A3CF",
".. c #5BA2CF",
"X. c #5AA3CF",
"o. c #5BA3CF",
"O. c #5BA3CE",
"+. c #5FA5CE",
"@. c #5FA5CF",
"#. c #5FA4CE",
"$. c #5BA3CE",
"%. c #51A1D5",
"&. c #56A2D4",
"*. c #54A0D2",
"=. c #58A1D0",
"-. c #5FA5D1",
";. c #5EA5D2",
":. c #5CA5D6",
">. c #60A5D1",
",. c #61A6D0",
"<. c #65A8D0",
"1. c #66A9D0",
"2. c #67A9D1",
"3. c #67A9D0",
"4. c #63A8D7",
"5. c #65A9D1",
"6. c #6FADD2",
"7. c #6FAED4",
"8. c #6CACD2",
"9. c #61A8D8",
"0. c #70ADD2",
"q. c #70AED3",
"w. c #72AFD4",
"e. c #71AED2",
"r. c #73B0D4",
"t. c #75B1D5",
"y. c #75B2D5",
"u. c #77B2D6",
"i. c #75B2D5",
"p. c #7BB3D5",
"a. c #7BB4D6",
"s. c #7CB6D8",
"d. c #86B9D8",
"f. c #83BADA",
/* pixels */
"                                                                                                                                ",
"                                                        0.w.y.0.6.0.y.                                                          ",
"                                                      d.=.=.Q  .=. .-.                                                          ",
"                                                    a.O.H H H H H J K ,.                                                        ",
"                                                  ! ' E y y y y y v J K ;.7.                                                    ",
"                                                9.) V c e e e e e d l l L Q                                                     ",
"                                                K  .c e e q e q e e e e v ~ 5.                                                  ",
"                                                J +.c e e 8 6 6 6 9 e r m Y 5.                                                  ",
"                                            9.:.T n s e 9 5 5 5 6 8 9 q d b _ w.                                                ",
"                                            J I } a e 0 5 5 5 5 1 5 8 e q d J ;.a.                                              ",
"                                            K I } a e 0 5 5 5 5 5 5 6 q e h K Q s.                                              ",
"                                          ( ' P f r w 0 5 5 e z 8 5 8 e e r h G -.y.                                            ",
"                                          J O.C q e q 9 5 e j H u y t 0 0 q t D ) 5.                                            ",
"                                          J  .C q e 8 6 8 m J S D H m 5 0 e r A W 2.                                            ",
"                                          J O.C e e 8 9 m J k > : f m 5 0 r r A W 5.                                            ",
"                                          J O.C e q d x H d 4 & & 8 i l t q r S W <.                                            ",
"                                          K R N e e z J m 2 & & & , 0 J d q t v U -.                                            ",
"                                          +.a e e w x m 5 - & & & , w J d q r e v K +.                                          ",
"                                      / T +.a e w 9 j A 5 = & & & ; 6 w 8 8 e e x K +.                                          ",
"                                      ~ I +.a e w t j l 5 - & # & , 5 5 5 8 e e z K -.                                          ",
"                                      K K +.a e r S i 5 1 = # + & ; 1 5 5 8 e e z J -.                                          ",
"                                      K K +.a e r S d 1 = & & + & & - 5 5 8 e e x K -.                                          ",
"                                      ( I +.a e r u w 1 & # + + @ & * 5 5 8 0 r x K -.                                          ",
"                                      ( I +.a r r 8 5 1 & @ + + + # * 5 8 0 e w x K +.                                          ",
"                                      ( I +.a d D 9 5 1 & @ + + + # = 5 v v w e x J -.                                          ",
"                                      ( K +.a d F 0 5 1 & @ + + + # * 5 r i v t z K -.                                          ",
"                                      ( I +.a d v 9 5 1 & @ + + + # * 5 5 y F u x K +.                                          ",
"                                      ( K +.a e e 5 5 1 & + + + + @ * 5 5 y F y x K -.                                          ",
"                                      ( ! +.a e r A u 1 & @ + + + # = 5 5 y F y z K ;.                                          ",
"                                      ~ K +.a e r S d 1 & @ + + + # = 5 5 t F y z K ;.                                          ",
"                                      ~ I +.a e t S i 1 & @ + + + # = 5 5 y F y x K +.                                          ",
"                                      / K ,.a e r F i 1 & & # @ & & * 5 5 y F y x K ,.                                          ",
"                                      %.K +.a e t S S l 2 = # + & - , 5 5 y F y x K -.                                          ",
"                                      &.I +.a e r l m S y > # # 7 5 5 5 5 y F y l K -.                                          ",
"                                      *.K ,.a e 0 6 l H J 3 * - A u 5 5 5 u F y v K +.                                          ",
"                                          +.a w e e 8 0 J J J m : , 5 5 v v r w v K +.                                          ",
"                                          W n g e e 9 8 l H m p * , 5 5 m m r i M T y.                                          ",
"                                          J O.C e e 9 5 5 v d & & , 5 6 v v t S W 5.                                            ",
"                                          J O.C e e 9 5 5 - * & * , 0 H d e r S W 5.                                            ",
"                                          J  .C e w i j 5 < - & , , 8 y r e r S ) 5.                                            ",
"                                          J =.C q e k m e 8 , = 0 8 5 8 q q t D W 5.                                            ",
"                                          K O.C r e q y H t < > A u 8 0 e e t D W 6.                                            ",
"                                            K Y Z p e e 9 z m v w 8 6 q e d D W y.                                              ",
"                                            K I } a e 0 5 u j i 8 5 5 r e d K ;.f.                                              ",
"                                            ( ( } s r q 5 5 5 5 5 5 8 q r h K 5.d.                                              ",
"                                                J O.c e e 6 5 5 5 0 q r b Y 2.                                                  ",
"                                                J +.c e e 0 9 0 0 0 e q v ! 2.                                                  ",
"                                                *.*.B g e e e e 0 y d d G ) w.                                                  ",
"                                                  ( ) R r r r r r v J J =.6.                                                    ",
"                                                    9.I m m v m m D K [ 5.                                                      ",
"                                                      / Y T T T T Y ' 0.                                                        ",
"                                                        6.6.6.2.8.6.y.                                                          ",
"                                                                                                                                ",
"                                                                                                                                ",
"                                                                                                                                ",
"                                                                                                                                ",
"                                                                                                                                ",
"                                                                                                                                ",
"                                                                                                                                ",
"                                                        % o X X o o                                                             ",
"                                                $ O o o o . . . . . o X o O                                                     ",
"                                                $ O O o X . . . . . o O o o                                                     ",
"                                                        $ . . . . .                                                             ",
"                                                                                                                                "
};
